<?xml version="1.0" encoding="utf-8"?>
<!DOCTYPE svg PUBLIC "-//W3C//DTD SVG 1.1//EN" "http://www.w3.org/Graphics/SVG/1.1/DTD/svg11.dtd">

<svg width="905" height="475" xmlns="http://www.w3.org/2000/svg" xmlns:xlink="http://www.w3.org/1999/xlink"><g class="paths" opacity="1" transform="translate(-116409.85985602242,290239.9826460788)scale(111.37122271825825)"><path d="M1049.9114406996257,-2603.724542956122L1050.130225016946,-2603.724542956122L1050.667241068552,-2603.662547766042L1050.667241068552,-2603.5385598271137L1050.3688988176598,-2603.6129521998823L1050.110335533554,-2603.637749917863Z" class="d3plus_coordinates default" id="14000US25017352700" fill="#cfdfeb" fill-opacity="0.75" stroke-width="0.00897898016734317" stroke-opacity="0.35" stroke="#adbac4"></path><path d="M1047.663929076241,-2604.679371669654L1048.2606135780243,-2604.3321388900576L1047.783265976598,-2604.208133370732Z" class="d3plus_coordinates default" id="14000US25017354400" fill="#3182bd" fill-opacity="0.75" stroke-width="0.00897898016734317" stroke-opacity="0.35" stroke="#286c9e"></path><path d="M1050.5876831349804,-2603.1666155377607L1050.6274621017658,-2603.4517702064586L1050.9258043526577,-2603.3897785966506L1051.263925570335,-2603.2781957492625L1051.1843676367635,-2602.831890716569L1050.5876831349804,-2603.055037961943Z" class="d3plus_coordinates default" id="14000US25017352300" fill="#6ea7d2" fill-opacity="0.75" stroke-width="0.00897898016734317" stroke-opacity="0.35" stroke="#5c8baf"></path><path d="M1049.056192913736,-2602.5467734638582L1049.2351982642708,-2602.5839616948924L1049.6130984487336,-2602.9930515586248L1049.7324353490906,-2602.881478082368L1049.3147561978424,-2602.336045683809L1049.3943141314132,-2602.07574787243L1049.056192913736,-2602.298859404177Z" class="d3plus_coordinates default" id="14000US25017353300" fill="#4c96cb" fill-opacity="0.75" stroke-width="0.00897898016734317" stroke-opacity="0.35" stroke="#3f7da9"></path><path d="M1046.8086812903512,-2604.9770200915978L1047.3258078585636,-2604.8653997344695L1047.663929076241,-2604.679371669654L1047.783265976598,-2604.208133370732L1047.365586825349,-2604.059331045742L1047.4451447589206,-2603.7865389599965L1046.9677971574943,-2603.7865389599965L1046.8484602571373,-2604.1957329978964L1046.629675939817,-2604.6421669361835Z" class="d3plus_coordinates default" id="14000US25017354300" fill="#b0cde1" fill-opacity="0.75" stroke-width="0.00897898016734317" stroke-opacity="0.35" stroke="#93abbc"></path><path d="M1048.2606135780243,-2605.485546226388L1048.6782927292732,-2605.039032541374L1048.5987347957016,-2604.8405955690155L1048.379950478381,-2604.9026062269777L1048.3003925448104,-2604.9274107182046Z" class="d3plus_coordinates default" id="14000US25017354800" fill="#3182bd" fill-opacity="0.75" stroke-width="0.00897898016734317" stroke-opacity="0.35" stroke="#286c9e"></path><path d="M1051.0053622862292,-2603.6749467389554L1051.4827098876556,-2603.637749917863L1051.6418257547978,-2603.5633571545104L1051.979946972475,-2603.3277878004506L1051.6020467880123,-2603.253399918921L1051.6020467880123,-2603.253399918921L1051.0451412530147,-2603.637749917863Z" class="d3plus_coordinates default" id="14000US25017352101" fill="#90bad8" fill-opacity="0.75" stroke-width="0.00897898016734317" stroke-opacity="0.35" stroke="#789bb4"></path><path d="M1050.2893408840885,-2603.302991709772L1050.3688988176598,-2603.6129521998823L1050.667241068552,-2603.5385598271137L1050.6274621017658,-2603.4517702064586L1050.5876831349804,-2603.1666155377607Z" class="d3plus_coordinates default" id="14000US25017352600" fill="#b0cde1" fill-opacity="0.75" stroke-width="0.00897898016734317" stroke-opacity="0.35" stroke="#93abbc"></path><path d="M1049.0164139469505,-2602.968257225048L1049.2351982642708,-2602.968257225048L1049.7324353490906,-2603.030243303007L1049.6130984487336,-2602.9930515586248L1049.2351982642708,-2602.5839616948924L1049.056192913736,-2602.5467734638582Z" class="d3plus_coordinates default" id="14000US25017353400" fill="#90bad8" fill-opacity="0.75" stroke-width="0.00897898016734317" stroke-opacity="0.35" stroke="#789bb4"></path><path d="M1049.951219666411,-2603.340185894604L1050.110335533554,-2603.637749917863L1050.3688988176598,-2603.6129521998823L1050.2893408840885,-2603.302991709772L1050.110335533554,-2603.501364080124L1049.990998633197,-2603.302991709772Z" class="d3plus_coordinates default" id="14000US25017352800" fill="#4c96cb" fill-opacity="0.75" stroke-width="0.00897898016734317" stroke-opacity="0.35" stroke="#3f7da9"></path><path d="M1049.7324353490906,-2602.881478082368L1049.7722143158767,-2602.918668948314L1050.0307775999825,-2602.5219814724637L1049.3943141314132,-2602.07574787243L1049.3943141314132,-2602.07574787243L1049.3147561978424,-2602.336045683809Z" class="d3plus_coordinates default" id="14000US25017353200" fill="#6ea7d2" fill-opacity="0.75" stroke-width="0.00897898016734317" stroke-opacity="0.35" stroke="#5c8baf"></path><path d="M1049.533540515163,-2603.5385598271137L1049.7324353490906,-2603.4517702064586L1049.5733194819481,-2603.141820293144L1049.2351982642708,-2603.340185894604L1049.2351982642708,-2603.4517702064586L1049.3147561978424,-2603.6749467389554Z" class="d3plus_coordinates default" id="14000US25017353800" fill="#90bad8" fill-opacity="0.75" stroke-width="0.00897898016734317" stroke-opacity="0.35" stroke="#789bb4"></path><path d="M1050.667241068552,-2603.5385598271137L1050.667241068552,-2603.662547766042L1051.0053622862292,-2603.6749467389554L1051.0451412530147,-2603.637749917863L1050.9258043526577,-2603.3897785966506L1050.6274621017658,-2603.4517702064586Z" class="d3plus_coordinates default" id="14000US25017352200" fill="#ecf3f7" fill-opacity="0.75" stroke-width="0.00897898016734317" stroke-opacity="0.35" stroke="#c5cbce"></path><path d="M1048.8970770465935,-2604.5057520881064L1048.8970770465935,-2603.860935238895L1048.8970770465935,-2603.662547766042L1048.5390663455241,-2604.257735187698L1048.6782927292732,-2604.567758348676Z" class="d3plus_coordinates default" id="14000US25017354000" fill="#90bad8" fill-opacity="0.75" stroke-width="0.00897898016734317" stroke-opacity="0.35" stroke="#789bb4"></path><path d="M1050.2097829505176,-2603.0054487742163L1050.2893408840885,-2603.302991709772L1050.5876831349804,-2603.1666155377607L1050.5876831349804,-2603.055037961943L1051.1843676367635,-2602.831890716569L1051.1843676367635,-2602.769907241289L1050.5081252014088,-2602.856684334404L1050.1700039837322,-2602.89387500515Z" class="d3plus_coordinates default" id="14000US25017352400" fill="#ecf3f7" fill-opacity="0.75" stroke-width="0.00897898016734317" stroke-opacity="0.35" stroke="#c5cbce"></path><path d="M1049.533540515163,-2603.5385598271137L1049.6926563823051,-2603.860935238895L1049.9114406996257,-2603.724542956122L1050.110335533554,-2603.637749917863L1049.951219666411,-2603.340185894604L1049.7324353490906,-2603.4517702064586Z" class="d3plus_coordinates default" id="14000US25017352900" fill="#6ea7d2" fill-opacity="0.75" stroke-width="0.00897898016734317" stroke-opacity="0.35" stroke="#5c8baf"></path><path d="M1048.8970770465935,-2604.5057520881064L1049.1357508473075,-2604.530554494626L1049.3943141314132,-2604.257735187698L1049.5733194819481,-2604.009731312658L1049.1954192974854,-2603.8113375894127L1048.8970770465935,-2603.860935238895Z" class="d3plus_coordinates default" id="14000US25017353600" fill="#4c96cb" fill-opacity="0.75" stroke-width="0.00897898016734317" stroke-opacity="0.35" stroke="#3f7da9"></path><path d="M1049.7324353490906,-2603.4517702064586L1049.951219666411,-2603.340185894604L1049.990998633197,-2603.302991709772L1049.951219666411,-2603.1046276702587L1049.7722143158767,-2602.918668948314L1049.7324353490906,-2602.881478082368L1049.6130984487336,-2602.9930515586248L1049.7324353490906,-2603.030243303007L1049.5733194819481,-2603.141820293144Z" class="d3plus_coordinates default" id="14000US25017353000" fill="#b0cde1" fill-opacity="0.75" stroke-width="0.00897898016734317" stroke-opacity="0.35" stroke="#93abbc"></path><path d="M1049.951219666411,-2603.1046276702587L1050.2097829505176,-2603.0054487742163L1050.1700039837322,-2602.89387500515L1050.5081252014088,-2602.856684334404L1050.0307775999825,-2602.5219814724637L1049.7722143158767,-2602.918668948314Z" class="d3plus_coordinates default" id="14000US25017353101" fill="#6ea7d2" fill-opacity="0.75" stroke-width="0.00897898016734317" stroke-opacity="0.35" stroke="#5c8baf"></path><path d="M1049.2351982642708,-2603.340185894604L1049.5733194819481,-2603.141820293144L1049.7324353490906,-2603.030243303007L1049.2351982642708,-2602.968257225048Z" class="d3plus_coordinates default" id="14000US25017353500" fill="#6ea7d2" fill-opacity="0.75" stroke-width="0.00897898016734317" stroke-opacity="0.35" stroke="#5c8baf"></path><path d="M1048.8970770465935,-2603.662547766042L1048.8970770465935,-2603.860935238895L1049.1954192974854,-2603.8113375894127L1049.5733194819481,-2604.009731312658L1049.6926563823051,-2603.860935238895L1049.533540515163,-2603.5385598271137L1049.3147561978424,-2603.6749467389554L1049.2351982642708,-2603.4517702064586L1048.8771875632015,-2603.588154612099Z" class="d3plus_coordinates default" id="14000US25017353700" fill="#b0cde1" fill-opacity="0.75" stroke-width="0.00897898016734317" stroke-opacity="0.35" stroke="#93abbc"></path><path d="M1047.783265976598,-2604.208133370732L1048.2606135780243,-2604.3321388900576L1048.379950478381,-2604.23293421409L1048.2606135780243,-2603.6749467389554L1048.2009451278468,-2603.3649821805407L1047.783265976598,-2602.968257225048L1047.5644816592776,-2603.0054487742163L1047.783265976598,-2603.6749467389554L1047.4451447589206,-2603.7865389599965L1047.365586825349,-2604.059331045742Z" class="d3plus_coordinates default" id="14000US25017354200" fill="#004374" fill-opacity="0.75" stroke-width="0.00897898016734317" stroke-opacity="0.35" stroke="#003861"></path><path d="M1049.990998633197,-2603.302991709772L1050.110335533554,-2603.501364080124L1050.2893408840885,-2603.302991709772L1050.2097829505176,-2603.0054487742163L1049.951219666411,-2603.1046276702587Z" class="d3plus_coordinates default" id="14000US25017352500" fill="#4c96cb" fill-opacity="0.75" stroke-width="0.00897898016734317" stroke-opacity="0.35" stroke="#3f7da9"></path><path d="M1048.499287378738,-2604.6173639433955L1049.0164139469505,-2604.7041749881623L1049.1357508473075,-2604.530554494626L1048.8970770465935,-2604.5057520881064L1048.6782927292732,-2604.567758348676L1048.5390663455241,-2604.257735187698L1048.379950478381,-2604.23293421409L1048.2606135780243,-2604.3321388900576Z" class="d3plus_coordinates default" id="14000US25017354500" fill="#6ea7d2" fill-opacity="0.75" stroke-width="0.00897898016734317" stroke-opacity="0.35" stroke="#5c8baf"></path><path d="M1047.962271327133,-2605.733627634602L1048.0816082274898,-2605.956912049764L1048.3003925448104,-2605.733627634602L1048.4595084119526,-2605.460738802594L1048.7180716960586,-2605.0886430876467L1048.6782927292732,-2605.039032541374L1048.2606135780243,-2605.485546226388L1047.7037080430264,-2605.572373236281Z" class="d3plus_coordinates default" id="14000US25017355000" fill="#6ea7d2" fill-opacity="0.75" stroke-width="0.00897898016734317" stroke-opacity="0.35" stroke="#5c8baf"></path><path d="M1050.9258043526577,-2603.3897785966506L1051.0451412530147,-2603.637749917863L1051.6020467880123,-2603.253399918921L1051.562267821227,-2603.191410912535L1051.3434835039066,-2602.7451140788917L1051.1843676367635,-2602.769907241289L1051.1843676367635,-2602.831890716569L1051.263925570335,-2603.2781957492625Z" class="d3plus_coordinates default" id="14000US25017352102" fill="#3182bd" fill-opacity="0.75" stroke-width="0.00897898016734317" stroke-opacity="0.35" stroke="#286c9e"></path><path d="M1048.8771875632015,-2603.588154612099L1049.2351982642708,-2603.4517702064586L1049.2351982642708,-2603.340185894604L1049.2351982642708,-2602.968257225048L1049.0164139469505,-2602.968257225048L1048.976634980165,-2603.2781957492625L1048.7180716960586,-2603.3277878004506Z" class="d3plus_coordinates default" id="14000US25017353900" fill="#cfdfeb" fill-opacity="0.75" stroke-width="0.00897898016734317" stroke-opacity="0.35" stroke="#adbac4"></path><path d="M1046.8484602571373,-2605.349107008695L1047.0672445744578,-2605.7088189070887L1047.5644816592776,-2605.460738802594L1047.7037080430264,-2605.572373236281L1048.2606135780243,-2605.485546226388L1048.3003925448104,-2604.9274107182046L1047.7037080430264,-2605.0638377493483Z" class="d3plus_coordinates default" id="14000US25017354900" fill="#cfdfeb" fill-opacity="0.75" stroke-width="0.00897898016734317" stroke-opacity="0.35" stroke="#adbac4"></path><path d="M1048.379950478381,-2604.9026062269777L1048.5987347957016,-2604.8405955690155L1048.6782927292732,-2605.039032541374L1048.7180716960586,-2605.0886430876467L1048.8374085964153,-2605.1754627980304L1049.056192913736,-2604.8653997344695L1049.0164139469505,-2604.7041749881623L1048.499287378738,-2604.6173639433955Z" class="d3plus_coordinates default" id="14000US25017354700" fill="#3182bd" fill-opacity="0.75" stroke-width="0.00897898016734317" stroke-opacity="0.35" stroke="#286c9e"></path><path d="M1046.8484602571373,-2605.349107008695L1047.7037080430264,-2605.0638377493483L1048.3003925448104,-2604.9274107182046L1048.379950478381,-2604.9026062269777L1048.499287378738,-2604.6173639433955L1048.2606135780243,-2604.3321388900576L1047.663929076241,-2604.679371669654L1047.3258078585636,-2604.8653997344695L1046.8086812903512,-2604.9770200915978L1046.7291233567805,-2605.237477854382Z" class="d3plus_coordinates default" id="14000US25017354600" fill="#6ea7d2" fill-opacity="0.75" stroke-width="0.00897898016734317" stroke-opacity="0.35" stroke="#5c8baf"></path><path d="M1048.379950478381,-2604.23293421409L1048.5390663455241,-2604.257735187698L1048.8970770465935,-2603.662547766042L1048.8771875632015,-2603.588154612099L1048.7180716960586,-2603.3277878004506L1048.4197294451671,-2603.662547766042L1048.2606135780243,-2603.6749467389554Z" class="d3plus_coordinates default" id="14000US25017354100" fill="#3182bd" fill-opacity="0.75" stroke-width="0.00897898016734317" stroke-opacity="0.35" stroke="#286c9e"></path><path d="M1049.3943141314132,-2602.07574787243L1050.0307775999825,-2602.5219814724637L1050.5081252014088,-2602.856684334404L1051.1843676367635,-2602.769907241289L1051.3434835039066,-2602.7451140788917L1051.263925570335,-2602.5467734638582L1050.4683462346234,-2602.2120925565573L1050.0307775999825,-2602.1129323960845Z" class="d3plus_coordinates default" id="14000US25017353102" fill="#90bad8" fill-opacity="0.75" stroke-width="0.00897898016734317" stroke-opacity="0.35" stroke="#789bb4"></path></g></svg>
